<?xml version="1.0" encoding="UTF-8"?>
<svg id="Layer_1" data-name="Layer 1" xmlns="http://www.w3.org/2000/svg" viewBox="0 0 632.51 336.39">
  <defs>
    <style>
      .cls-1 {
        fill: #fff;
        font-family: SulSans-Black, 'Sul Sans';
        font-size: 64.66px;
        font-weight: 800;
      }

      .cls-2 {
        fill: #83b0de;
      }

      .cls-3 {
        fill: #e32826;
      }

      .cls-4 {
        fill: #8bb0dd;
      }

      .cls-5 {
        fill: #fdd309;
      }

      .cls-6 {
        fill: #0864af;
      }

      .cls-7 {
        fill: #fed500;
      }

      .cls-8 {
        letter-spacing: -.06em;
      }

      .cls-9 {
        letter-spacing: -.01em;
      }

      .cls-10 {
        letter-spacing: -.01em;
      }

      .cls-11 {
        letter-spacing: 0em;
      }

      .cls-12 {
        letter-spacing: .01em;
      }
    </style>
  </defs>
  <rect class="cls-6" x="-11.12" y="-8.7" width="991.34" height="358.68"/>
  <g>
    <text class="cls-1" transform="translate(50.05 96.21)"><tspan x="0" y="0" xml:space="preserve">A   </tspan><tspan class="cls-10" x="98.54" y="0"> </tspan><tspan class="cls-8" x="116.45" y="0">W</tspan><tspan x="176.13" y="0">o</tspan><tspan class="cls-12" x="214.29" y="0">r</tspan><tspan class="cls-11" x="241.25" y="0">t</tspan><tspan x="268.41" y="0">en</tspan></text>
    <text class="cls-1" transform="translate(50.05 171.08)"><tspan class="cls-11" x="0" y="0">r</tspan><tspan x="26.06" y="0">esol</tspan><tspan class="cls-9" x="150.53" y="0">v</tspan><tspan x="183.57" y="0">e</tspan></text>
    <text class="cls-1" transform="translate(50.05 245.96)"><tspan x="0" y="0">tudo</tspan></text>
    <polygon class="cls-7" points="154.63 271.01 124.54 301.1 102.34 278.91 80.15 301.1 50.05 271.01 154.63 271.01"/>
    <g>
      <path class="cls-3" d="M323.98,242.92h-104.61l-2.38-2.38c-4.97-4.96-4.97-13.01,0-17.98,4.96-4.96,13.01-4.96,17.97,0l14.51,14.51,13.22-13.22c4.96-4.96,13.01-4.96,17.97,0l.07.07,13.14,13.14,14.51-14.51c4.96-4.96,13.01-4.96,17.97,0,4.96,4.96,4.96,13.01,0,17.98l-2.38,2.38Z"/>
      <path class="cls-2" d="M286.22,127.44c3.25,0,6.51,1.24,8.99,3.72l.07.07,13.14,13.14,14.51-14.51c4.96-4.96,13.01-4.96,17.97,0,4.96,4.97,4.96,13.01,0,17.98l-32.48,32.48-22.2-22.2v-30.69Z"/>
      <path class="cls-4" d="M140.37,51.37l13.14,13.14c4.96,4.96,4.96,13.01,0,17.97l-.07.07-13.14,13.14h-35.95l22.2-22.2-22.13-22.13h35.95Z"/>
      <path class="cls-5" d="M440.19,39.52c-5.64-5.65-14.8-5.65-20.44,0l-16.51,16.51v40.89l36.95-36.95c5.65-5.65,5.65-14.8,0-20.44"/>
    </g>
  </g>
</svg>