<?xml version="1.0" encoding="UTF-8"?>
<!DOCTYPE svg PUBLIC "-//W3C//DTD SVG 1.1//EN" "http://www.w3.org/Graphics/SVG/1.1/DTD/svg11.dtd">
<!-- Creator: CorelDRAW 2020 (64 Bit) -->
<svg xmlns="http://www.w3.org/2000/svg" xml:space="preserve" width="200px" height="135px" version="1.1" style="shape-rendering:geometricPrecision; text-rendering:geometricPrecision; image-rendering:optimizeQuality; fill-rule:evenodd; clip-rule:evenodd"
viewBox="0 0 200 135"
 xmlns:xlink="http://www.w3.org/1999/xlink"
 xmlns:xodm="http://www.corel.com/coreldraw/odm/2003"
 data-name="Layer 1">
 <defs>
  <style type="text/css">
   <![CDATA[
    .fil3 {fill:#83B0DE;fill-rule:nonzero}
    .fil4 {fill:#8BB0DD;fill-rule:nonzero}
    .fil2 {fill:#E32826;fill-rule:nonzero}
    .fil5 {fill:#FDD309;fill-rule:nonzero}
    .fil1 {fill:#FED500;fill-rule:nonzero}
    .fil0 {fill:white;fill-rule:nonzero}
   ]]>
  </style>
 </defs>
 <g id="Camada_x0020_1">
  <metadata id="CorelCorpID_0Corel-Layer"/>
  <g id="_2414160577632">
   <g>
    <path class="fil0" d="M14.64 28.18l-8.56 0 -1.02 3.17 -5.07 0 7.81 -24.04 5.27 0 7.77 24.04 -5.17 0 -1.02 -3.17 -0.01 0zm-1.58 -4.94l-2.7 -8.36 -2.7 8.36 5.41 0 -0.01 0z"/>
    <polygon class="fil0" points="90.9,7.31 84.11,31.35 78.68,31.35 75.09,19.03 71.6,31.35 66.2,31.35 59.35,7.31 64.59,7.31 68.97,23.51 73.38,7.31 76.97,7.31 81.28,23.24 85.76,7.31 "/>
    <path class="fil0" d="M98.99 14.38c5.01,0 8.66,3.79 8.66,8.7 0,4.9 -3.65,8.62 -8.66,8.62 -5,0 -8.66,-3.88 -8.66,-8.62 0,-4.74 3.66,-8.7 8.66,-8.7zm0 12.55c2.21,0 3.82,-1.71 3.82,-3.85 0,-2.15 -1.61,-3.92 -3.82,-3.92 -2.2,0 -3.82,1.71 -3.82,3.92 0,2.21 1.62,3.85 3.82,3.85z"/>
    <path class="fil0" d="M121.42 14.75l0 4.81 -2.47 0c-1.88,0 -3.2,1.41 -3.2,3.29l0 8.5 -4.87 0 0 -16.6 4.78 0 0 1.48c0.92,-1.15 2.44,-1.48 3.82,-1.48l1.94 0 0 0z"/>
    <path class="fil0" d="M130.07 14.75l5.11 0 0 4.65 -5.11 0 0 5.52c0,1.09 0.73,1.78 1.82,1.78l3.29 0 0 4.65 -4.28 0c-3.36,0 -5.66,-2.18 -5.66,-5.53l0 -6.42 -2.41 0 0 -2.51 4.58 -5.63 2.67 0 0 3.49 -0.01 0z"/>
    <path class="fil0" d="M153.81 24.79l-11.56 0c0.56,1.45 1.98,2.41 3.76,2.41 1.57,0 2.76,-0.79 3.45,-1.91l3.89 2.33c-1.45,2.51 -4.15,4.09 -7.41,4.09 -5.01,0 -8.63,-3.76 -8.63,-8.63 0,-4.87 3.46,-8.69 8.37,-8.69 4.91,0 8.33,3.69 8.33,8.63 0,0.59 -0.07,1.21 -0.2,1.77l0 0zm-11.65 -3.52l7.04 0c-0.46,-1.58 -1.77,-2.44 -3.48,-2.44 -1.82,0 -3.13,0.86 -3.56,2.44l0 0z"/>
    <path class="fil0" d="M172.58 20.97l0 10.38 -4.87 0 0 -9.39c0,-1.58 -1.06,-2.83 -2.77,-2.83 -1.71,0 -2.83,1.25 -2.83,2.83l0 9.39 -4.87 0 0 -16.6 4.78 0 0 0.96c1.08,-0.83 2.47,-1.32 4.04,-1.32 3.76,0 6.52,2.8 6.52,6.58z"/>
   </g>
   <g>
    <path class="fil0" d="M12.3 52.87l0 4.81 -2.47 0c-1.88,0 -3.19,1.42 -3.19,3.3l0 8.49 -4.87 0 0 -16.6 4.77 0 0 1.49c0.92,-1.15 2.44,-1.49 3.82,-1.49l1.95 0 -0.01 0z"/>
    <path class="fil0" d="M30.41 62.92l-11.55 0c0.56,1.45 1.97,2.4 3.75,2.4 1.58,0 2.76,-0.79 3.45,-1.91l3.89 2.34c-1.45,2.5 -4.15,4.08 -7.41,4.08 -5,0 -8.62,-3.75 -8.62,-8.62 0,-4.88 3.45,-8.7 8.36,-8.7 4.91,0 8.33,3.69 8.33,8.63 0,0.59 -0.06,1.22 -0.2,1.78l0 0zm-11.66 -3.52l7.05 0c-0.46,-1.58 -1.78,-2.44 -3.49,-2.44 -1.81,0 -3.12,0.85 -3.55,2.44l-0.01 0z"/>
    <path class="fil0" d="M39.76 65.45c1.32,0 2.14,-0.52 2.14,-1.22 0,-0.49 -0.43,-0.78 -1.25,-0.89 -0.83,-0.09 -1.75,-0.13 -3,-0.33 -3.22,-0.49 -4.71,-2.44 -4.71,-4.87 0,-3.23 2.7,-5.63 6.72,-5.63 4.02,0 6.69,2.31 6.72,5.59l-4.71 0c0,-0.75 -0.79,-1.21 -2.04,-1.21 -1.26,0 -1.98,0.49 -1.98,1.12 0,0.46 0.4,0.72 1.15,0.82 1.05,0.13 1.75,0.13 3.1,0.3 3.22,0.4 4.71,2.4 4.71,4.91 0,3.32 -2.77,5.79 -6.89,5.79 -4.12,0 -6.94,-2.37 -6.94,-5.73l4.71 0c0,0.83 0.89,1.35 2.27,1.35l0 0z"/>
    <path class="fil0" d="M57.31 52.51c5,0 8.66,3.79 8.66,8.7 0,4.9 -3.66,8.62 -8.66,8.62 -5.01,0 -8.66,-3.88 -8.66,-8.62 0,-4.75 3.65,-8.7 8.66,-8.7zm0 12.55c2.2,0 3.82,-1.71 3.82,-3.85 0,-2.15 -1.62,-3.92 -3.82,-3.92 -2.21,0 -3.82,1.71 -3.82,3.92 0,2.21 1.61,3.85 3.82,3.85z"/>
    <polygon class="fil0" points="69.2,44.38 74.07,44.38 74.07,69.48 69.2,69.48 "/>
    <polygon class="fil0" points="93.27,52.87 87.28,69.47 82.4,69.47 76.41,52.87 81.68,52.87 84.91,62.03 88.07,52.87 93.27,52.87 "/>
    <path class="fil0" d="M110.62 62.92l-11.56 0c0.56,1.45 1.97,2.4 3.75,2.4 1.58,0 2.77,-0.79 3.46,-1.91l3.88 2.34c-1.45,2.5 -4.15,4.08 -7.41,4.08 -5,0 -8.62,-3.75 -8.62,-8.62 0,-4.88 3.46,-8.7 8.37,-8.7 4.9,0 8.33,3.69 8.33,8.63 0,0.59 -0.07,1.22 -0.2,1.78l0 0zm-11.66 -3.52l7.05 0c-0.46,-1.58 -1.78,-2.44 -3.49,-2.44 -1.81,0 -3.13,0.85 -3.55,2.44l-0.01 0z"/>
   </g>
   <g>
    <path class="fil0" d="M7.23 91l5.1 0 0 4.65 -5.1 0 0 5.53c0,1.08 0.72,1.77 1.81,1.77l3.3 0.01 0 4.64 -4.28 0c-3.37,0 -5.67,-2.18 -5.67,-5.53l0 -6.42 -2.4 0 0 -2.51 4.58 -5.63 2.67 0 0 3.49 -0.01 0z"/>
    <path class="fil0" d="M30.81 91l0 16.6 -4.78 0 0 -0.92c-1.08,0.82 -2.47,1.28 -4.02,1.28 -3.72,0 -6.49,-2.8 -6.49,-6.55l0 -10.41 4.88 0 0 9.42c0,1.55 1.05,2.8 2.73,2.8 1.68,0 2.8,-1.25 2.8,-2.8l0 -9.42 4.88 0z"/>
    <path class="fil0" d="M51.26 82.51l0 25.09 -4.78 0 0 -0.98c-1.12,0.85 -2.6,1.35 -4.25,1.35 -4.81,0 -8.2,-3.82 -8.2,-8.63 0,-4.81 3.39,-8.69 8.2,-8.69 1.58,0 3.03,0.46 4.15,1.25l0 -9.39 4.88 0 0 0zm-4.71 16.82c0,-2.24 -1.58,-3.95 -3.89,-3.95 -2.18,0 -3.75,1.71 -3.75,3.95 0,2.24 1.57,3.89 3.75,3.89 2.31,0 3.89,-1.71 3.89,-3.89z"/>
    <path class="fil0" d="M63.14 90.64c5.01,0 8.66,3.79 8.66,8.69 0,4.91 -3.65,8.63 -8.66,8.63 -5.01,0 -8.66,-3.89 -8.66,-8.63 0,-4.74 3.65,-8.69 8.66,-8.69zm0 12.55c2.21,0 3.82,-1.71 3.82,-3.86 0,-2.14 -1.61,-3.92 -3.82,-3.92 -2.21,0 -3.82,1.71 -3.82,3.92 0,2.21 1.61,3.86 3.82,3.86z"/>
   </g>
   <polygon class="fil1" points="52.84,120.35 37.52,135.68 26.22,124.38 14.92,135.68 -0.41,120.35 "/>
   <g>
    <path class="fil2" d="M139.08 106.05l-53.27 0 -1.21 -1.21c-2.53,-2.53 -2.53,-6.63 0,-9.16 2.52,-2.52 6.62,-2.52 9.15,0l7.39 7.39 6.73 -6.73c2.52,-2.53 6.62,-2.53 9.15,0l0.03 0.04 6.69 6.69 7.39 -7.39c2.53,-2.53 6.63,-2.53 9.15,0 2.53,2.52 2.53,6.62 0,9.15l-1.21 1.21 0.01 0.01z"/>
    <path class="fil3" d="M119.85 47.25c1.65,0 3.31,0.63 4.58,1.89l0.03 0.04 6.69 6.69 7.39 -7.39c2.53,-2.53 6.63,-2.53 9.15,0 2.53,2.53 2.53,6.62 0,9.16l-16.54 16.53 -11.3 -11.3 0 -15.63 0 0.01z"/>
    <path class="fil4" d="M45.58 8.51l6.69 6.69c2.53,2.53 2.53,6.63 0,9.15l-0.03 0.04 -6.69 6.69 -18.31 0 11.31 -11.3 -11.27 -11.27 18.3 0 0 0z"/>
    <g>
     <path class="fil5" d="M198.25 2.48c-2.87,-2.88 -7.54,-2.88 -10.41,0l-8.4 8.41 0 20.82 18.81 -18.82c2.88,-2.87 2.88,-7.53 0,-10.4l0 -0.01zm0 0l0 0 0 0z"/>
    </g>
   </g>
  </g>
 </g>
</svg>
