<?xml version="1.0" encoding="UTF-8"?>
<!DOCTYPE svg PUBLIC "-//W3C//DTD SVG 1.1//EN" "http://www.w3.org/Graphics/SVG/1.1/DTD/svg11.dtd">
<!-- Creator: CorelDRAW 2020 (64 Bit) -->
<svg xmlns="http://www.w3.org/2000/svg" xml:space="preserve" width="2480px" height="3508px" version="1.1" style="shape-rendering:geometricPrecision; text-rendering:geometricPrecision; image-rendering:optimizeQuality; fill-rule:evenodd; clip-rule:evenodd"
viewBox="0 0 2480 3507.43"
 xmlns:xlink="http://www.w3.org/1999/xlink"
 xmlns:xodm="http://www.corel.com/coreldraw/odm/2003"
 data-name="Layer 1">
 <defs>
  <style type="text/css">
   <![CDATA[
    .fil0 {fill:blue;fill-rule:nonzero}
    .fil4 {fill:#83B0DE;fill-rule:nonzero}
    .fil5 {fill:#8BB0DD;fill-rule:nonzero}
    .fil3 {fill:#E32826;fill-rule:nonzero}
    .fil6 {fill:#FDD309;fill-rule:nonzero}
    .fil2 {fill:#FED500;fill-rule:nonzero}
    .fil1 {fill:white;fill-rule:nonzero}
   ]]>
  </style>
 </defs>
 <g id="Camada_x0020_1">
  <metadata id="CorelCorpID_0Corel-Layer"/>
  <g id="_2414037180416">
   <g>
    <g>
     <path class="fil0" d="M7242.79 3156.56l-8.61 -13.2c-0.83,-1.25 -0.43,-2.93 0.86,-3.71 1.29,-0.8 3.02,-0.42 3.81,0.84l3.91 6.02 3.9 -6.02c1.09,-1.64 3.62,-1.71 4.71,0l3.9 6.02 3.9 -6.02c0.83,-1.26 2.52,-1.62 3.81,-0.84 1.3,0.81 1.66,2.46 0.87,3.71l-8.55 13.2 -6.28 -9.63 -6.23 9.63z"/>
     <path class="fil0" d="M7274.21 3139.02c-5,0 -9.07,3.95 -9.07,8.83 0,4.88 4.07,8.83 9.07,8.83 5,0 9.06,-3.95 9.06,-8.83 0,-4.88 -4.06,-8.83 -9.06,-8.83zm0 13.02c-2.1,0 -3.83,-1.91 -3.83,-4.25 0,-2.33 1.7,-4.25 3.83,-4.25 2.12,0 3.83,1.92 3.83,4.25 0,2.34 -1.71,4.25 -3.83,4.25z"/>
     <g>
      <path class="fil0" d="M7290.67 3156.2l-5.39 0 0 -10.68c0,-3.35 2.73,-6.08 6.08,-6.08l3.86 0 0 4.64 -3.71 0c-0.39,0 -0.87,0.57 -0.87,0.96l0 11.16 0.03 0z"/>
     </g>
     <path class="fil0" d="M7302.82 3150.73l0 -6.68 2.36 0c1.29,0 2.31,-1.05 2.31,-2.3 0,-1.29 -1.05,-2.31 -2.31,-2.31l-2.36 0 0 -2.3c0,-1.32 -1.08,-2.4 -2.57,-2.4 -1.38,0 -2.46,1.17 -2.46,2.58l0 13.82c0,2.82 2.28,5.09 5.09,5.09l4.61 0 0 -4.67 -3.83 0c-0.45,0 -0.84,-0.39 -0.84,-0.83z"/>
     <path class="fil0" d="M7326.14 3149.53c0.12,-0.54 0.18,-1.11 0.18,-1.71 0,-4.85 -3.95,-8.82 -8.79,-8.82 -4.85,0 -8.8,3.94 -8.8,8.82 0,4.88 3.95,8.83 8.8,8.83 3.74,0 6.97,-2.36 8.23,-5.69l-5.3 0c-0.75,0.87 -1.83,1.41 -2.99,1.41 -1.74,0 -3.24,-1.17 -3.86,-2.84l12.53 0zm-8.67 -6.23c1.55,0 2.9,0.93 3.59,2.31l-7.22 0c0.72,-1.38 2.07,-2.31 3.63,-2.31z"/>
     <g>
      <path class="fil0" d="M7346.13 3156.29l-5.21 0 -0.03 -8.44c0,-1.07 -0.48,-3.68 -3.5,-3.68 -2.42,0 -3.32,2.04 -3.32,3.17 0,2.34 0,8.95 0,8.95l-5.15 0 0 -8.95c0,-3.38 2.64,-8.14 8.47,-8.14 5.66,0 8.71,4.46 8.71,8.65l0 8.44 0.03 0z"/>
     </g>
    </g>
    <path class="fil0" d="M7360.11 3139.04c-2.33,0 -4.25,1.02 -5.47,2.78l0 -2.5 -1.92 0 0 16.99 1.92 0 0 -9.13c0,-4.51 2.59,-6.31 5.47,-6.31 0.22,0 0.41,0.04 0.63,0.04l0.33 -1.8c-0.29,-0.03 -0.63,-0.07 -0.96,-0.07z"/>
    <path id="1" class="fil0" d="M7379.64 3148.74c0.03,-0.32 0.03,-0.64 0.03,-0.92 0,-4.87 -2.8,-8.78 -7.87,-8.78 -5.06,0 -8.53,3.91 -8.53,8.78 0,4.83 3.66,8.74 8.76,8.74 3.21,0 5.69,-1.69 7.13,-4.09l-1.67 -0.77c-1.14,1.79 -2.99,3.1 -5.46,3.1 -3.73,0 -6.36,-2.65 -6.76,-6.06l14.37 0zm-14.37 -1.84c0.37,-3.45 2.8,-6.1 6.53,-6.1 3.7,0 5.69,2.65 5.99,6.1l-12.52 0z"/>
    <path id="2" class="fil0" d="M7389.63 3139.04c-3.91,0 -6.02,2.05 -5.87,4.94 0.15,2.61 2.21,3.63 5.95,4.54 3.17,0.74 4.72,1.31 4.72,3.21 0,2.19 -2.25,3.03 -4.32,3.03 -2.77,0 -4.51,-1.05 -4.99,-2.85l-1.77 0.77c0.7,2.05 2.66,3.92 6.76,3.92 3.21,0 6.24,-1.59 6.24,-4.87 0,-3.49 -3.25,-4.33 -6.16,-5 -2.89,-0.67 -4.4,-1.27 -4.51,-2.75 -0.11,-2.01 1.4,-3.11 3.91,-3.11 2.37,0 3.88,0.99 4.25,2.51l1.78 -0.78c-0.71,-2.15 -2.85,-3.56 -5.99,-3.56z"/>
    <path id="3" class="fil0" d="M7408.27 3139.04c-5.06,0 -8.61,3.95 -8.61,8.78 0,4.83 3.55,8.74 8.61,8.74 5.1,0 8.53,-3.91 8.53,-8.74 0,-4.83 -3.43,-8.78 -8.53,-8.78zm0 15.76c-4.03,0 -6.65,-3.14 -6.65,-6.98 0,-3.88 2.62,-6.98 6.65,-6.98 4.06,0 6.57,3.1 6.57,6.98 0,3.84 -2.51,6.98 -6.57,6.98z"/>
    <polygon id="4" class="fil0" points="7421.59,3129.87 7421.59,3156.31 7423.55,3156.31 7423.55,3129.87 "/>
    <polygon id="5" class="fil0" points="7440.71,3139.32 7435.06,3153.74 7429.44,3139.32 7427.37,3139.32 7434.02,3156.31 7436.09,3156.31 7442.74,3139.32 "/>
    <path id="6" class="fil0" d="M7461.82 3148.74c0.04,-0.32 0.04,-0.64 0.04,-0.92 0,-4.87 -2.81,-8.78 -7.87,-8.78 -5.06,0 -8.53,3.91 -8.53,8.78 0,4.83 3.65,8.74 8.75,8.74 3.21,0 5.69,-1.69 7.13,-4.09l-1.66 -0.77c-1.15,1.79 -3,3.1 -5.47,3.1 -3.73,0 -6.35,-2.65 -6.76,-6.06l14.37 0zm-14.37 -1.84c0.37,-3.45 2.81,-6.1 6.54,-6.1 3.69,0 5.69,2.65 5.98,6.1l-12.52 0z"/>
   </g>
   <path class="fil0" d="M7475.07 3131.24c3.21,-0.01 4.7,0.66 6.62,2.78l12.39 11.87 12.74 -12.67c9.5,-9.22 24.49,4.77 15.92,14.99l-28.72 28.4 -19.06 -18.61 0.11 -26.76z"/>
   <path class="fil0" d="M7239.98 3173.81c-0.52,0.46 -1.38,0.67 -1.91,0.46 -0.35,-0.12 -0.85,-0.44 -0.85,-1.88l0 -6.1 2.3 0 0 -1.08 -2.3 0 0 -2.87 -1.09 0.29 0 2.58 -1.55 0 0 1.08 1.55 0 0 6.06c0,1.86 0.65,2.64 1.48,2.95 0.8,0.31 2.08,0.15 2.98,-0.65l-0.61 -0.84z"/>
   <path id="1" class="fil0" d="M7248.74 3165.21l0 5.63c0,2.47 -1.41,3.52 -3.04,3.52 -1.72,0 -2.87,-1.07 -2.87,-3.73 0,-2.32 0,-5.42 0,-5.42l-1.09 0c0,0 0,2.88 0,5.42 0,2.87 1.17,4.82 3.96,4.82 1.34,0 2.34,-0.61 3.04,-1.66l0 1.51 1.08 0 0 -10.09 -1.08 0z"/>
   <path id="2" class="fil0" d="M7260.36 3160.64l0 6.37c-0.78,-1.2 -2.01,-1.97 -3.67,-1.97 -2.86,0 -4.77,2.32 -4.77,5.21 0,2.87 1.91,5.2 4.77,5.2 1.66,0 2.89,-0.78 3.67,-1.97l0 1.82 1.09 0 0 -14.66 -1.09 0zm-3.67 13.76c-2.28,0 -3.66,-1.86 -3.66,-4.15 0,-2.3 1.38,-4.17 3.66,-4.17 2.29,0 3.61,1.87 3.61,4.17 0,2.29 -1.32,4.15 -3.61,4.15z"/>
   <path id="3" class="fil0" d="M7268.21 3165.04c-2.87,0 -4.88,2.34 -4.88,5.21 0,2.87 2.01,5.2 4.88,5.2 2.89,0 4.84,-2.33 4.84,-5.2 0,-2.87 -1.95,-5.21 -4.84,-5.21zm0 9.36c-2.28,0 -3.77,-1.86 -3.77,-4.15 0,-2.3 1.49,-4.15 3.77,-4.15 2.31,0 3.73,1.85 3.73,4.15 0,2.29 -1.42,4.15 -3.73,4.15z"/>
   <path id="4" class="fil0" d="M7289.87 3170.8c0.02,-0.19 0.02,-0.38 0.02,-0.55 0,-2.89 -1.59,-5.21 -4.46,-5.21 -2.87,0 -4.84,2.32 -4.84,5.21 0,2.87 2.08,5.2 4.97,5.2 1.82,0 3.22,-1.01 4.04,-2.43l-0.94 -0.46c-0.65,1.06 -1.7,1.84 -3.1,1.84 -2.12,0 -3.61,-1.57 -3.84,-3.6l8.15 0zm-8.15 -1.09c0.21,-2.05 1.59,-3.63 3.71,-3.63 2.09,0 3.23,1.58 3.39,3.63l-7.1 0z"/>
   <path id="5" class="fil0" d="M7308.66 3165.04c-1.49,0 -2.64,0.81 -3.29,2.11 -0.52,-1.32 -1.57,-2.11 -3.35,-2.11 -1.28,0 -2.24,0.58 -2.87,1.57l0 -1.4 -1.09 0 0 10.09 1.09 0 0 -5.42c0,-2.68 1.11,-3.75 2.74,-3.75 1.72,0 2.81,1.07 2.81,3.75 0,2.3 0,5.42 0,5.42l1.09 0 0 -5.42c0,-2.68 1.09,-3.75 2.74,-3.75 1.72,0 2.81,1.07 2.81,3.75 0,2.3 0,5.42 0,5.42l1.09 0c0,0 0,-2.91 0,-5.42 0,-2.9 -0.99,-4.84 -3.77,-4.84z"/>
   <path id="6" class="fil0" d="M7319.13 3165.04c-2.58,0 -3.73,1.53 -3.98,2.8l1.07 0.25c0.12,-0.81 0.84,-1.99 2.91,-1.99 1.74,0 2.72,0.99 2.72,2.16 0,0.86 -0.52,0.92 -3.28,1.34 -2.52,0.36 -3.84,1.18 -3.84,3.04 0,1.67 1.28,2.81 3.35,2.81 1.62,0 2.91,-0.74 3.77,-1.74l0 1.59 1.09 0 0 -6.79c0,-2.47 -1.69,-3.47 -3.81,-3.47zm2.72 5.92c0,2.14 -1.97,3.4 -3.7,3.4 -1.49,0 -2.33,-0.63 -2.33,-1.66 0,-1.19 0.86,-1.76 2.68,-2.01 1.3,-0.19 2.77,-0.44 3.35,-0.56l0 0.83z"/>
   <path id="7" class="fil0" d="M7325.69 3175.3l1.09 0 0 -10.09 -1.09 0 0 10.09zm0.54 -13.57c-0.44,0 -0.77,0.33 -0.77,0.77 0,0.42 0.33,0.78 0.77,0.78 0.42,0 0.78,-0.36 0.78,-0.78 0,-0.44 -0.36,-0.77 -0.78,-0.77z"/>
   <path id="8" class="fil0" d="M7332.45 3165.04c-2.22,0 -3.41,1.21 -3.33,2.93 0.08,1.55 1.26,2.16 3.37,2.7 1.8,0.44 2.68,0.78 2.68,1.91 0,1.3 -1.27,1.8 -2.45,1.8 -1.57,0 -2.55,-0.63 -2.82,-1.7l-1.01 0.46c0.4,1.22 1.51,2.33 3.83,2.33 1.83,0 3.54,-0.94 3.54,-2.89 0,-2.08 -1.84,-2.58 -3.5,-2.98 -1.63,-0.4 -2.49,-0.75 -2.55,-1.63 -0.06,-1.19 0.8,-1.84 2.22,-1.84 1.34,0 2.2,0.58 2.41,1.48l1 -0.46c-0.39,-1.28 -1.61,-2.11 -3.39,-2.11z"/>
   <path id="9" class="fil0" d="M7348.56 3165.04c-1.32,0 -2.35,0.6 -3.04,1.65l0 -1.48 -1.09 0 0 10.09 1.09 0 0 -5.42c0,-2.68 1.4,-3.75 3.04,-3.75 1.72,0 2.87,1.07 2.87,3.75 0,2.3 0,5.42 0,5.42l1.09 0c0,0 0,-2.91 0,-5.42 0,-2.9 -1.16,-4.84 -3.96,-4.84z"/>
   <path id="10" class="fil0" d="M7359.01 3165.04c-2.58,0 -3.73,1.53 -3.98,2.8l1.07 0.25c0.12,-0.81 0.84,-1.99 2.91,-1.99 1.74,0 2.72,0.99 2.72,2.16 0,0.86 -0.52,0.92 -3.29,1.34 -2.51,0.36 -3.83,1.18 -3.83,3.04 0,1.67 1.28,2.81 3.35,2.81 1.62,0 2.91,-0.74 3.77,-1.74l0 1.59 1.09 0 0 -6.79c0,-2.47 -1.69,-3.47 -3.81,-3.47zm2.72 5.92c0,2.14 -1.97,3.4 -3.7,3.4 -1.49,0 -2.33,-0.63 -2.33,-1.66 0,-1.19 0.86,-1.76 2.68,-2.01 1.3,-0.19 2.77,-0.44 3.35,-0.56l0 0.83zm-0.14 -9.4c-0.21,0.65 -0.46,1.07 -0.97,1.01 -0.75,-0.09 -1.38,-1.22 -2.68,-1.3 -1.21,-0.09 -1.82,0.81 -2.18,1.53l0.9 0.5c0.36,-0.61 0.7,-1.01 1.26,-1.01 0.78,0 1.47,1.24 2.79,1.34 1.02,0.09 1.59,-0.86 1.84,-1.8l-0.96 -0.27z"/>
   <path id="11" class="fil0" d="M7370.01 3165.04c-2.87,0 -4.88,2.34 -4.88,5.21 0,2.87 2.01,5.2 4.88,5.2 2.89,0 4.83,-2.33 4.83,-5.2 0,-2.87 -1.94,-5.21 -4.83,-5.21zm0 9.36c-2.29,0 -3.77,-1.86 -3.77,-4.15 0,-2.3 1.48,-4.15 3.77,-4.15 2.3,0 3.72,1.85 3.72,4.15 0,2.29 -1.42,4.15 -3.72,4.15z"/>
   <path id="12" class="fil0" d="M7385.94 3165.04c-2.22,0 -3.41,1.21 -3.33,2.93 0.09,1.55 1.26,2.16 3.38,2.7 1.8,0.44 2.68,0.78 2.68,1.91 0,1.3 -1.28,1.8 -2.45,1.8 -1.57,0 -2.56,-0.63 -2.83,-1.7l-1.01 0.46c0.4,1.22 1.51,2.33 3.84,2.33 1.82,0 3.54,-0.94 3.54,-2.89 0,-2.08 -1.85,-2.58 -3.5,-2.98 -1.63,-0.4 -2.49,-0.75 -2.56,-1.63 -0.06,-1.19 0.8,-1.84 2.22,-1.84 1.34,0 2.2,0.58 2.41,1.48l1.01 -0.46c-0.4,-1.28 -1.61,-2.11 -3.4,-2.11z"/>
   <path id="13" class="fil0" d="M7400.5 3170.8c0.02,-0.19 0.02,-0.38 0.02,-0.55 0,-2.89 -1.59,-5.21 -4.46,-5.21 -2.87,0 -4.84,2.32 -4.84,5.21 0,2.87 2.08,5.2 4.97,5.2 1.82,0 3.22,-1.01 4.04,-2.43l-0.94 -0.46c-0.65,1.06 -1.7,1.84 -3.1,1.84 -2.12,0 -3.61,-1.57 -3.84,-3.6l8.15 0zm-8.15 -1.09c0.21,-2.05 1.6,-3.63 3.71,-3.63 2.1,0 3.23,1.58 3.39,3.63l-7.1 0z"/>
   <path id="14" class="fil0" d="M7402.64 3175.3l1.09 0 0 -10.09 -1.09 0 0 10.09zm0.54 -13.57c-0.44,0 -0.77,0.33 -0.77,0.77 0,0.42 0.33,0.78 0.77,0.78 0.42,0 0.78,-0.36 0.78,-0.78 0,-0.44 -0.36,-0.77 -0.78,-0.77z"/>
   <path id="15" class="fil0" d="M7417.01 3165.04c-2.87,0 -4.88,2.34 -4.88,5.21 0,2.87 2.01,5.2 4.88,5.2 2.89,0 4.84,-2.33 4.84,-5.2 0,-2.87 -1.95,-5.21 -4.84,-5.21zm0 9.36c-2.28,0 -3.77,-1.86 -3.77,-4.15 0,-2.3 1.49,-4.15 3.77,-4.15 2.3,0 3.73,1.85 3.73,4.15 0,2.29 -1.43,4.15 -3.73,4.15z"/>
   <path id="16" class="fil0" d="M7437.83 3165.21l0 1.8c-0.76,-1.2 -2.01,-1.97 -3.67,-1.97 -2.87,0 -4.77,2.34 -4.77,5.21 0,2.87 1.9,5.2 4.77,5.2 1.66,0 2.91,-0.78 3.67,-1.97l0 6.39 1.09 0 0 -14.66 -1.09 0zm-3.67 9.19c-2.28,0 -3.66,-1.86 -3.66,-4.15 0,-2.3 1.38,-4.15 3.66,-4.15 2.31,0 3.6,1.85 3.6,4.15 0,2.29 -1.29,4.15 -3.6,4.15z"/>
   <path id="17" class="fil0" d="M7448.21 3165.21l0 5.63c0,2.47 -1.4,3.52 -3.03,3.52 -1.72,0 -2.87,-1.07 -2.87,-3.73 0,-2.32 0,-5.42 0,-5.42l-1.09 0c0,0 0,2.88 0,5.42 0,2.87 1.17,4.82 3.96,4.82 1.34,0 2.34,-0.61 3.03,-1.66l0 1.51 1.09 0 0 -10.09 -1.09 0z"/>
   <path id="18" class="fil0" d="M7460.68 3170.8c0.02,-0.19 0.02,-0.38 0.02,-0.55 0,-2.89 -1.59,-5.21 -4.46,-5.21 -2.87,0 -4.84,2.32 -4.84,5.21 0,2.87 2.07,5.2 4.96,5.2 1.83,0 3.23,-1.01 4.04,-2.43l-0.94 -0.46c-0.65,1.06 -1.69,1.84 -3.1,1.84 -2.11,0 -3.6,-1.57 -3.83,-3.6l8.15 0zm-8.15 -1.09c0.21,-2.05 1.59,-3.63 3.71,-3.63 2.09,0 3.22,1.58 3.39,3.63l-7.1 0zm2.28 -6.22l1.49 -2.01 1.47 2.01 1.36 0 -2.31 -2.85 -1.06 0 -2.31 2.85 1.36 0z"/>
   <path id="19" class="fil0" d="M7463.15 3173.94c-0.44,0 -0.78,0.35 -0.78,0.77 0,0.42 0.34,0.78 0.78,0.78 0.42,0 0.77,-0.36 0.77,-0.78 0,-0.42 -0.35,-0.77 -0.77,-0.77z"/>
   <path class="fil0" d="M7221.12 3131.24c-3.2,-0.01 -4.7,0.66 -6.62,2.78l-12.39 11.87 -12.74 -12.67c-9.49,-9.22 -24.49,4.77 -15.92,14.99l28.72 28.4 19.06 -18.61 -0.11 -26.76z"/>
  </g>
  <g id="_2414037245008">
   <g>
    <path class="fil1" d="M572.22 1700.56l-8.55 0 -1.02 3.16 -5.07 0 7.8 -24.03 5.27 0 7.77 24.03 -5.17 0 -1.01 -3.16 -0.02 0zm-1.57 -4.94l-2.7 -8.36 -2.7 8.36 5.4 0 0 0z"/>
    <polygon class="fil1" points="648.47,1679.69 641.69,1703.72 636.26,1703.72 632.67,1691.41 629.18,1703.72 623.78,1703.72 616.93,1679.69 622.16,1679.69 626.54,1695.89 630.96,1679.69 634.55,1679.69 638.86,1695.62 643.33,1679.69 "/>
    <path class="fil1" d="M656.57 1686.76c5,0 8.66,3.79 8.66,8.69 0,4.91 -3.66,8.63 -8.66,8.63 -5.01,0 -8.66,-3.89 -8.66,-8.63 0,-4.74 3.65,-8.69 8.66,-8.69zm0 12.55c2.2,0 3.82,-1.71 3.82,-3.86 0,-2.14 -1.62,-3.92 -3.82,-3.92 -2.21,0 -3.82,1.71 -3.82,3.92 0,2.21 1.61,3.86 3.82,3.86z"/>
    <path class="fil1" d="M678.99 1687.13l0 4.81 -2.47 0c-1.88,0 -3.19,1.41 -3.19,3.29l0 8.49 -4.88 0 0 -16.59 4.78 0 0 1.48c0.92,-1.15 2.44,-1.48 3.82,-1.48l1.94 0 0 0z"/>
    <path class="fil1" d="M687.64 1687.13l5.11 0 0 4.64 -5.11 0 0 5.53c0,1.09 0.73,1.78 1.82,1.78l3.29 0 0 4.64 -4.28 0c-3.36,0 -5.66,-2.17 -5.66,-5.53l0 -6.42 -2.41 0 0 -2.5 4.58 -5.63 2.67 0 0 3.49 -0.01 0z"/>
    <path class="fil1" d="M711.38 1697.17l-11.56 0c0.56,1.45 1.98,2.4 3.75,2.4 1.58,0 2.77,-0.79 3.46,-1.91l3.89 2.34c-1.45,2.51 -4.15,4.08 -7.41,4.08 -5.01,0 -8.63,-3.75 -8.63,-8.62 0,-4.87 3.46,-8.69 8.37,-8.69 4.91,0 8.33,3.69 8.33,8.62 0,0.59 -0.07,1.22 -0.2,1.78l0 0zm-11.65 -3.52l7.04 0c-0.46,-1.58 -1.77,-2.44 -3.49,-2.44 -1.81,0 -3.12,0.85 -3.55,2.44l0 0z"/>
    <path class="fil1" d="M730.15 1693.35l0 10.37 -4.88 0 0 -9.38c0,-1.58 -1.05,-2.83 -2.76,-2.83 -1.71,0 -2.83,1.25 -2.83,2.83l0 9.38 -4.87 0 0 -16.59 4.77 0 0 0.96c1.09,-0.83 2.47,-1.32 4.05,-1.32 3.75,0 6.52,2.8 6.52,6.58z"/>
   </g>
   <g>
    <path class="fil1" d="M569.89 1725.25l0 4.81 -2.47 0c-1.88,0 -3.19,1.41 -3.19,3.29l0 8.49 -4.88 0 0 -16.59 4.78 0 0 1.48c0.92,-1.15 2.44,-1.48 3.82,-1.48l1.94 0 0 0z"/>
    <path class="fil1" d="M588 1735.29l-11.56 0c0.56,1.45 1.98,2.4 3.75,2.4 1.58,0 2.77,-0.79 3.46,-1.91l3.88 2.34c-1.45,2.5 -4.15,4.08 -7.4,4.08 -5.01,0 -8.63,-3.75 -8.63,-8.62 0,-4.87 3.46,-8.69 8.37,-8.69 4.9,0 8.33,3.68 8.33,8.62 0,0.59 -0.07,1.22 -0.2,1.78l0 0zm-11.66 -3.52l7.04 0c-0.46,-1.58 -1.77,-2.44 -3.48,-2.44 -1.82,0 -3.13,0.86 -3.56,2.44l0 0z"/>
    <path class="fil1" d="M597.34 1737.82c1.32,0 2.14,-0.52 2.14,-1.21 0,-0.5 -0.42,-0.79 -1.25,-0.89 -0.82,-0.1 -1.75,-0.14 -2.99,-0.33 -3.23,-0.5 -4.71,-2.44 -4.71,-4.88 0,-3.22 2.7,-5.63 6.71,-5.63 4.02,0 6.69,2.31 6.72,5.6l-4.71 0c0,-0.76 -0.79,-1.22 -2.04,-1.22 -1.26,0 -1.98,0.5 -1.98,1.12 0,0.46 0.4,0.72 1.15,0.83 1.06,0.13 1.75,0.13 3.1,0.29 3.23,0.4 4.71,2.4 4.71,4.91 0,3.32 -2.77,5.79 -6.89,5.79 -4.11,0 -6.94,-2.37 -6.94,-5.73l4.71 0c0,0.83 0.89,1.35 2.27,1.35l0 0z"/>
    <path class="fil1" d="M614.89 1724.89c5,0 8.66,3.79 8.66,8.69 0,4.9 -3.66,8.62 -8.66,8.62 -5,0 -8.66,-3.88 -8.66,-8.62 0,-4.74 3.66,-8.69 8.66,-8.69zm0 12.54c2.2,0 3.82,-1.71 3.82,-3.85 0,-2.15 -1.62,-3.92 -3.82,-3.92 -2.2,0 -3.82,1.71 -3.82,3.92 0,2.21 1.62,3.85 3.82,3.85z"/>
    <polygon class="fil1" points="626.78,1716.76 631.65,1716.76 631.65,1741.85 626.78,1741.85 "/>
    <polygon class="fil1" points="650.84,1725.25 644.85,1741.84 639.98,1741.84 633.99,1725.25 639.26,1725.25 642.48,1734.4 645.65,1725.25 650.85,1725.25 "/>
    <path class="fil1" d="M668.19 1735.29l-11.56 0c0.56,1.45 1.98,2.4 3.76,2.4 1.57,0 2.76,-0.79 3.45,-1.91l3.89 2.34c-1.45,2.5 -4.15,4.08 -7.41,4.08 -5.01,0 -8.63,-3.75 -8.63,-8.62 0,-4.87 3.46,-8.69 8.37,-8.69 4.91,0 8.33,3.68 8.33,8.62 0,0.59 -0.07,1.22 -0.2,1.78l0 0zm-11.65 -3.52l7.04 0c-0.46,-1.58 -1.77,-2.44 -3.49,-2.44 -1.81,0 -3.12,0.86 -3.55,2.44l0 0z"/>
   </g>
   <g>
    <path class="fil1" d="M564.82 1763.37l5.1 0 0 4.65 -5.1 0 0 5.52c0,1.09 0.72,1.78 1.81,1.78l3.29 0 0 4.64 -4.28 0c-3.36,0 -5.66,-2.17 -5.66,-5.52l0 -6.42 -2.4 0 0 -2.51 4.57 -5.63 2.67 0 0 3.49 0 0z"/>
    <path class="fil1" d="M588.39 1763.37l0 16.59 -4.78 0 0 -0.92c-1.08,0.83 -2.47,1.29 -4.01,1.29 -3.73,0 -6.49,-2.8 -6.49,-6.56l0 -10.4 4.87 0 0 9.42c0,1.54 1.06,2.8 2.74,2.8 1.68,0 2.8,-1.26 2.8,-2.8l0 -9.42 4.87 0z"/>
    <path class="fil1" d="M608.84 1754.88l0 25.09 -4.78 0 0 -0.99c-1.12,0.86 -2.6,1.35 -4.25,1.35 -4.8,0 -8.19,-3.82 -8.19,-8.62 0,-4.81 3.39,-8.69 8.19,-8.69 1.58,0 3.03,0.46 4.15,1.25l0 -9.39 4.88 0 0 0zm-4.71 16.82c0,-2.24 -1.58,-3.95 -3.89,-3.95 -2.17,0 -3.75,1.71 -3.75,3.95 0,2.24 1.58,3.89 3.75,3.89 2.31,0 3.89,-1.71 3.89,-3.89z"/>
    <path class="fil1" d="M620.72 1763.01c5,0 8.66,3.79 8.66,8.69 0,4.9 -3.66,8.63 -8.66,8.63 -5.01,0 -8.66,-3.89 -8.66,-8.63 0,-4.74 3.65,-8.69 8.66,-8.69zm0 12.55c2.2,0 3.82,-1.72 3.82,-3.86 0,-2.14 -1.62,-3.92 -3.82,-3.92 -2.21,0 -3.82,1.71 -3.82,3.92 0,2.21 1.61,3.86 3.82,3.86z"/>
   </g>
   <polygon class="fil2" points="610.42,1792.72 595.1,1808.04 583.8,1796.74 572.5,1808.04 557.18,1792.72 "/>
   <g>
    <path class="fil3" d="M696.64 1778.42l-53.25 0 -1.22 -1.21c-2.53,-2.53 -2.53,-6.63 0,-9.16 2.53,-2.52 6.63,-2.52 9.15,0l7.39 7.39 6.73 -6.73c2.53,-2.53 6.62,-2.53 9.15,0l0.04 0.03 6.69 6.69 7.38 -7.38c2.53,-2.53 6.63,-2.53 9.15,0 2.53,2.52 2.53,6.62 0,9.15l-1.21 1.21 0 0.01z"/>
    <path class="fil4" d="M677.42 1719.62c1.66,0 3.32,0.63 4.58,1.9l0.03 0.03 6.69 6.69 7.39 -7.39c2.53,-2.52 6.63,-2.52 9.15,0 2.52,2.54 2.52,6.63 0,9.16l-16.54 16.54 -11.3 -11.31 0 -15.62 0 0z"/>
    <path class="fil5" d="M603.16 1680.89l6.69 6.69c2.53,2.53 2.53,6.63 0,9.15l-0.03 0.04 -6.69 6.69 -18.3 0 11.3 -11.3 -11.27 -11.27 18.3 0 0 0z"/>
    <g>
     <path class="fil6" d="M755.81 1674.86c-2.87,-2.88 -7.53,-2.88 -10.41,0l-8.4 8.41 0 20.81 18.81 -18.81c2.88,-2.87 2.88,-7.53 0,-10.4l0 -0.01zm0 0l0 0 0 0z"/>
    </g>
   </g>
  </g>
 </g>
</svg>
